<svg width="20" height="20" viewBox="0 0 20 20" fill="none" xmlns="http://www.w3.org/2000/svg">
<g id="bed 1" clip-path="url(#clip0_12_595)">
<g id="Group">
<path id="Vector" d="M19.5086 10.2753C19.5736 10.0919 19.6094 9.89472 19.6094 9.68933C19.6094 9.08265 19.3004 8.54683 18.8316 8.23081V3.98253C18.8316 3.01327 18.0431 2.22472 17.0738 2.22472H2.92617C1.95691 2.22472 1.16836 3.01327 1.16836 3.98253V8.23081C0.69957 8.54683 0.390625 9.08265 0.390625 9.68933C0.390625 9.89472 0.426367 10.0919 0.491406 10.2753H0V17.7753H1.17188V15.9821H18.8281V17.7753H20V10.2753H19.5086ZM2.92617 3.39659H17.0738C17.3969 3.39659 17.6598 3.65944 17.6598 3.98253V7.93151H16.4896V7.34558C16.4896 6.37632 15.701 5.58776 14.7318 5.58776H11.1719C10.722 5.58776 10.3112 5.75784 10 6.03679C9.68875 5.7578 9.27801 5.58776 8.82812 5.58776H5.26824C4.29898 5.58776 3.51043 6.37632 3.51043 7.34558V7.93151H2.34023V3.98253C2.34023 3.65944 2.60309 3.39659 2.92617 3.39659ZM9.41406 7.93151H4.6823V7.34558C4.6823 7.02249 4.94516 6.75964 5.26824 6.75964H8.82812C9.15121 6.75964 9.41406 7.02249 9.41406 7.34558V7.93151ZM10.5859 7.34558C10.5859 7.02249 10.8488 6.75964 11.1719 6.75964H14.7318C15.0548 6.75964 15.3177 7.02249 15.3177 7.34558V7.93151H10.5859V7.34558ZM1.5625 9.68933C1.5625 9.36624 1.82535 9.10339 2.14844 9.10339H17.8516C18.1746 9.10339 18.4375 9.36624 18.4375 9.68933C18.4375 10.0124 18.1746 10.2753 17.8516 10.2753H2.14844C1.82535 10.2753 1.5625 10.0124 1.5625 9.68933ZM1.17188 11.4471H18.8281V14.8102H1.17188V11.4471Z" fill="#383838"/>
</g>
</g>
<defs>
<clipPath id="clip0_12_595">
<rect width="20" height="20" fill="white"/>
</clipPath>
</defs>
</svg>
