<svg width="20" height="20" viewBox="0 0 20 20" fill="none" xmlns="http://www.w3.org/2000/svg">
<g id="ic">
<g id="Group">
<path id="Vector" d="M16.6746 5.53449L18.0001 4.20905L15.7911 2L14.4656 3.32545L13.2506 2.11049L11.9252 3.43591L11.2624 2.77317L9.0534 4.98222L10.9311 6.85994L6.85994 10.9312L4.98222 9.05343L2.77317 11.2625L3.43588 11.9252L2.11043 13.2506L3.32545 14.4656L2 15.7911L4.20901 18.0001L5.53446 16.6747L6.74945 17.8896L8.07489 16.5642L8.7376 17.2269L10.9466 15.0179L9.06892 13.1402L13.1401 9.06898L15.0178 10.9467L17.2269 8.73766L16.5642 8.07492L17.8896 6.74948L16.6746 5.53449ZM15.7911 3.32538L16.6747 4.20908L16.012 4.87182L15.1283 3.98812L15.7911 3.32538ZM4.20901 16.6748L3.32535 15.7911L3.98812 15.1283L4.87182 16.012L4.20901 16.6748ZM6.74945 16.5643L3.43578 13.2506L4.09855 12.5879L7.41222 15.9015L6.74945 16.5643ZM8.73763 15.9016L4.09852 11.2624L4.98222 10.3788L9.62132 15.0179L8.73763 15.9016ZM8.40628 12.4775L7.52261 11.5938L11.5938 7.52265L12.4775 8.40631L8.40628 12.4775ZM15.0179 9.62132L10.3787 4.98222L11.2624 4.09855L15.9016 8.73766L15.0179 9.62132ZM12.5878 4.09858L13.2506 3.43581L16.5643 6.74951L15.9015 7.41228L12.5878 4.09858Z" fill="#383838"/>
</g>
</g>
</svg>
