<svg width="20" height="20" viewBox="0 0 20 20" fill="none" xmlns="http://www.w3.org/2000/svg">
<g id="ic">
<g id="Group">
<g id="Group_2">
<path id="Vector" d="M10 3.8497C11.1446 3.8497 12.0516 4.7997 12.0518 5.97372C12.0518 7.00017 11.37 7.84761 10.4521 8.06747V8.99521L17.5703 13.8077L17.5752 13.8106L17.6953 13.9083C17.9658 14.1516 18.1504 14.4987 18.1504 14.9034C18.1504 15.5753 17.6381 16.1133 17.0127 16.1495L17.0039 16.1505H2.95703V16.1495C2.32601 16.1129 1.84961 15.5693 1.84961 14.9034C1.84963 14.4782 2.05494 14.0886 2.39453 13.8419L2.39844 13.839L9.54785 8.99619V7.63486C9.54785 7.50859 9.58922 7.39082 9.67285 7.3038C9.75721 7.21625 9.87363 7.17099 10 7.17099C10.6365 7.17099 11.1484 6.64814 11.1484 5.97372C11.1483 5.29943 10.6364 4.77646 10 4.77646C9.3636 4.77646 8.85169 5.29943 8.85156 5.97372C8.85156 6.10014 8.8104 6.21773 8.72656 6.30478C8.64229 6.39225 8.52661 6.4375 8.40039 6.43759C8.27402 6.43759 8.1576 6.39234 8.07324 6.30478C7.98947 6.21774 7.94824 6.10009 7.94824 5.97372C7.94837 4.7997 8.85543 3.8497 10 3.8497ZM2.90527 14.6153C2.81521 14.6862 2.75394 14.8015 2.75391 14.9034C2.75391 15.1079 2.90326 15.255 3.08691 15.255H16.9131C17.088 15.255 17.2477 15.1162 17.2754 14.8673C17.2733 14.749 17.1962 14.636 17.0752 14.5606L17.0703 14.5577V14.5567L10 9.78915L2.90527 14.6153Z" fill="#383838" stroke="#383838" stroke-width="0.3"/>
</g>
</g>
</g>
</svg>
