<svg width="20" height="20" viewBox="0 0 20 20" fill="none" xmlns="http://www.w3.org/2000/svg">
<g id="ic">
<g id="Group">
<g id="Group_2">
<path id="Vector" d="M15.8359 1C14.0913 1 12.6719 2.4194 12.6719 4.16406H7.23552L5.43602 1.66248C5.13968 1.24764 4.65843 1 4.14866 1H1.52734C1.23611 1 1 1.23611 1 1.52734C1 1.81858 1.23611 2.05469 1.52734 2.05469H4.14866C4.31857 2.05469 4.47899 2.13723 4.5788 2.27695L5.93629 4.16406H3.63672C3.18929 4.16406 2.94572 4.68828 3.2327 5.03035C3.36623 5.1895 8.3491 11.1294 8.41797 11.2114V16.1449L6.46307 18.0998C6.13232 18.4305 6.36643 19 6.83594 19H13.1641C13.6318 19 13.8689 18.4318 13.5369 18.0998L11.582 16.1449V11.2114L14.9404 7.20807C14.9429 7.20599 14.9451 7.20371 14.9476 7.2016C15.2345 7.28562 15.5319 7.32812 15.8359 7.32812C17.5806 7.32812 19 5.90873 19 4.16406C19 2.4194 17.5806 1 15.8359 1ZM4.76741 5.21875H6.69496L7.45367 6.27344H5.65219L4.76741 5.21875ZM11.8909 17.9453H8.10905L9.16374 16.8906H10.8362L11.8909 17.9453ZM9.47266 15.8359V11.5469H10.5273V15.8359H9.47266ZM10.8087 10.4922H9.19123L6.53693 7.32812H8.21234L9.5719 9.21809C9.67494 9.36132 9.83649 9.43754 10.0004 9.43754C10.1071 9.43754 10.2147 9.4053 10.3079 9.33825C10.5444 9.1682 10.5981 8.83865 10.4281 8.60222L9.51157 7.32812H13.463L10.8087 10.4922ZM14.3478 6.27344H8.7529L7.9942 5.21875C8.65285 5.21875 14.892 5.21875 15.2326 5.21875L14.3478 6.27344ZM15.8359 6.27344C15.7994 6.27344 15.763 6.27252 15.7268 6.2707L16.7673 5.03035C17.0549 4.68754 16.8098 4.16406 16.3633 4.16406H13.7266C13.7266 3.00095 14.6728 2.05469 15.8359 2.05469C16.999 2.05469 17.9453 3.00095 17.9453 4.16406C17.9453 5.32717 16.999 6.27344 15.8359 6.27344Z" fill="#383838"/>
</g>
</g>
</g>
</svg>
