<svg width="20" height="20" viewBox="0 0 20 20" fill="none" xmlns="http://www.w3.org/2000/svg">
<g id="icon/interfaces/mail">
<path id="Combined Shape" fill-rule="evenodd" clip-rule="evenodd" d="M16.25 4.16666H3.74996C2.59937 4.16666 1.66663 5.0994 1.66663 6.24999V13.758C1.66663 14.9086 2.59937 15.8413 3.74996 15.8413H16.25C17.4006 15.8413 18.3333 14.9086 18.3333 13.758V6.24999C18.3333 5.0994 17.4006 4.16666 16.25 4.16666ZM16.787 5.1209C16.6243 5.04338 16.4422 4.99999 16.25 4.99999H3.75002C3.55779 4.99999 3.3757 5.04338 3.213 5.1209L10 10.7102L16.787 5.1209ZM2.61921 14.2915C2.62306 14.2876 2.62702 14.2837 2.63106 14.2799L7.48096 9.7153L2.65175 5.73831C2.64122 5.72963 2.63123 5.72055 2.62177 5.71111C2.54369 5.87428 2.49996 6.05703 2.49996 6.25V13.758C2.49996 13.9489 2.54273 14.1297 2.61921 14.2915ZM3.20557 14.8836C3.37012 14.9633 3.55481 15.008 3.74994 15.008H16.2499C16.4451 15.008 16.6298 14.9633 16.7943 14.8836L11.8705 10.2493L10.2648 11.5716C10.111 11.6983 9.88892 11.6983 9.73507 11.5716L8.12942 10.2493L3.20557 14.8836ZM17.4999 13.758C17.4999 13.9489 17.4572 14.1297 17.3807 14.2915L17.3752 14.286L17.3688 14.2799L12.5189 9.71531L17.3482 5.73831C17.3587 5.72963 17.3687 5.72055 17.3781 5.71111C17.4562 5.87428 17.4999 6.05704 17.4999 6.25V13.758Z" fill="#383838"/>
</g>
</svg>
