<svg width="14" height="14" viewBox="0 0 14 14" fill="none" xmlns="http://www.w3.org/2000/svg">
<g id="icon/interfaces/map-marker">
<path id="Shape" fill-rule="evenodd" clip-rule="evenodd" d="M2.91675 5.83333C2.91675 7.68351 4.2204 9.7894 6.80225 12.1727C6.91398 12.2758 7.08619 12.2758 7.19791 12.1727C9.77976 9.7894 11.0834 7.68351 11.0834 5.83333C11.0834 3.57817 9.25524 1.75 7.00008 1.75C4.74492 1.75 2.91675 3.57817 2.91675 5.83333ZM8.75008 5.83333C8.75008 6.79983 7.96657 7.58333 7.00008 7.58333C6.03358 7.58333 5.25008 6.79983 5.25008 5.83333C5.25008 4.86683 6.03358 4.08333 7.00008 4.08333C7.96657 4.08333 8.75008 4.86683 8.75008 5.83333Z" fill="#FC4500"/>
</g>
</svg>
