<svg width="20" height="20" viewBox="0 0 20 20" fill="none" xmlns="http://www.w3.org/2000/svg">
<g id="ic">
<g id="Group 482">
<g id="Group">
<g id="Group_2">
<path id="Vector" d="M18.2361 12.8202C18.1032 12.7548 17.9746 12.6726 17.8537 12.5759C16.9581 11.8595 15.8102 11.7313 14.824 12.1903L12.6118 9.97811C13.6579 9.9172 14.4903 9.04719 14.4903 7.98618C14.4903 6.88576 13.595 5.99053 12.4947 5.99053C11.4336 5.99053 10.5636 6.82296 10.5027 7.869L9.12317 6.48945L11.0584 4.55423C11.6434 3.96923 11.6435 3.02278 11.0584 2.43768C10.4748 1.85411 9.52534 1.85411 8.9418 2.43768L5.94831 5.43117C5.36327 6.01617 5.36317 6.96263 5.94831 7.54773L7.59115 9.19061L4.76147 12.0203C3.89295 11.7846 2.95428 11.9696 2.19632 12.5759C2.06334 12.6823 1.92131 12.7708 1.77417 12.8391C1.52421 12.9551 1.41561 13.2517 1.53156 13.5017C1.64754 13.7516 1.94413 13.8602 2.19412 13.7443C2.41378 13.6423 2.62426 13.5114 2.81967 13.3551C3.53842 12.78 4.50426 12.78 5.22307 13.3551C6.31019 14.2248 7.74865 14.2281 8.83992 13.3551C9.55983 12.7791 10.4901 12.7791 11.2101 13.3551C12.2972 14.2248 13.7356 14.2281 14.8269 13.3551C15.5457 12.78 16.5115 12.78 17.2303 13.3551C17.4077 13.497 17.5979 13.6183 17.7958 13.7156C18.0431 13.8372 18.3421 13.7352 18.4637 13.488C18.5852 13.2408 18.4834 12.9417 18.2361 12.8202ZM12.4947 6.98837C13.0449 6.98837 13.4925 7.436 13.4925 7.98621C13.4925 8.53642 13.0449 8.98406 12.4947 8.98406C11.9444 8.98406 11.4968 8.53642 11.4968 7.98621C11.4968 7.436 11.9444 6.98837 12.4947 6.98837ZM11.8334 12.5759C11.2993 12.1486 10.674 11.9228 10.025 11.9228C9.37603 11.9228 8.75071 12.1486 8.21657 12.5759C7.49662 13.1518 6.56634 13.1518 5.84643 12.5759C5.80345 12.5415 5.75968 12.509 5.71558 12.4773L8.6495 9.54338C8.84434 9.34853 8.84434 9.03265 8.6495 8.8378L6.65385 6.84215C6.4588 6.64708 6.45874 6.33182 6.65385 6.13671L9.64734 3.14322C9.84245 2.94814 10.1577 2.94814 10.3528 3.14322C10.5479 3.3383 10.5479 3.65352 10.3528 3.84866L8.0648 6.13665C7.86995 6.33149 7.86995 6.64738 8.0648 6.84222L13.9641 12.7415C13.2856 13.1448 12.4758 13.0898 11.8334 12.5759Z" fill="#383838"/>
</g>
</g>
<g id="Group_3">
<g id="Group_4">
<path id="Vector_2" d="M18.2361 14.8157C18.1032 14.7504 17.9745 14.6682 17.8536 14.5715C16.762 13.6982 15.2951 13.6982 14.2036 14.5715C13.4836 15.1474 12.5533 15.1474 11.8334 14.5715C11.2993 14.1442 10.674 13.9183 10.025 13.9183C9.37603 13.9183 8.75071 14.1442 8.21657 14.5715C7.49663 15.1474 6.56634 15.1474 5.84643 14.5715C4.75482 13.6982 3.28799 13.6982 2.19632 14.5715C2.06334 14.6779 1.92131 14.7664 1.77417 14.8347C1.52421 14.9507 1.41561 15.2473 1.53156 15.4973C1.64754 15.7472 1.94413 15.8559 2.19412 15.7399C2.41378 15.638 2.62426 15.507 2.81967 15.3507C3.53842 14.7757 4.50426 14.7757 5.22307 15.3507C6.31019 16.2204 7.74865 16.2237 8.83992 15.3507C9.55983 14.7748 10.4901 14.7748 11.2101 15.3507C12.2972 16.2204 13.7356 16.2237 14.8269 15.3507C15.5457 14.7757 16.5115 14.7757 17.2303 15.3507C17.4077 15.4926 17.5979 15.6139 17.7958 15.7112C18.0431 15.8328 18.3421 15.7309 18.4637 15.4836C18.5852 15.2363 18.4833 14.9373 18.2361 14.8157Z" fill="#383838"/>
</g>
</g>
<g id="Group_5">
<g id="Group_6">
<path id="Vector_3" d="M18.2361 16.8114C18.1032 16.7461 17.9745 16.6639 17.8536 16.5672C16.762 15.6939 15.2951 15.6939 14.2036 16.5672C13.4836 17.1431 12.5533 17.1431 11.8334 16.5672C11.2993 16.1399 10.674 15.914 10.025 15.914C9.37603 15.914 8.75071 16.1399 8.21657 16.5672C7.49663 17.1431 6.56634 17.1431 5.84643 16.5672C4.75482 15.6939 3.28799 15.6939 2.19632 16.5672C2.06334 16.6735 1.92131 16.7621 1.77417 16.8304C1.52421 16.9464 1.41561 17.243 1.53156 17.4929C1.64754 17.7429 1.94413 17.8515 2.19412 17.7356C2.41378 17.6336 2.62426 17.5027 2.81967 17.3464C3.53842 16.7713 4.50426 16.7713 5.22307 17.3464C6.31019 18.2161 7.74865 18.2194 8.83992 17.3464C9.55983 16.7704 10.4901 16.7704 11.2101 17.3464C12.2972 18.2161 13.7356 18.2194 14.8269 17.3464C15.5457 16.7713 16.5115 16.7713 17.2303 17.3464C17.4077 17.4883 17.5979 17.6096 17.7958 17.7069C18.0431 17.8285 18.3421 17.7265 18.4637 17.4793C18.5852 17.232 18.4833 16.933 18.2361 16.8114Z" fill="#383838"/>
</g>
</g>
</g>
</g>
</svg>
