<svg width="20" height="20" viewBox="0 0 20 20" fill="none" xmlns="http://www.w3.org/2000/svg">
<g id="ic">
<g id="Group">
<g id="Group_2">
<path id="Vector" d="M19.5758 10.9206C19.5113 10.8804 18.1339 10.0322 16.3917 9.74806C16.6683 8.01518 16.3008 6.4519 16.2774 6.35538L16.1595 5.86976L15.6613 5.90874C15.5862 5.9146 14.0012 6.04749 12.4435 6.83475C11.65 5.29195 10.4553 4.25953 10.3804 4.19574L9.99996 3.8718L9.61953 4.19574C9.54457 4.25953 8.34993 5.29202 7.55642 6.83475C5.99869 6.04753 4.41373 5.91464 4.33858 5.90874L3.84038 5.86976L3.72252 6.35538C3.69909 6.4519 3.33163 8.01518 3.60827 9.74806C1.86605 10.0322 0.48867 10.8804 0.4241 10.9206L0 11.185L0.193437 11.6458C0.25078 11.7824 1.62988 15.0013 4.41471 15.8869C4.95486 16.0587 5.5024 16.1283 6.03529 16.1283C7.71227 16.1283 9.24258 15.4391 9.93082 15.0771L9.99996 15.1359L10.0691 15.0771C10.7573 15.4392 12.2875 16.1284 13.9646 16.1283C14.4974 16.1282 15.0452 16.0586 15.5852 15.8869C18.3701 15.0012 19.7491 11.7823 19.8065 11.6457L19.9999 11.185L19.5758 10.9206ZM4.77037 14.7686C3.07522 14.2295 1.96546 12.507 1.51015 11.6644C2.02034 11.411 2.89952 11.0379 3.89127 10.8917C4.0569 11.3699 4.28682 11.8397 4.60193 12.2743C5.52752 13.5509 6.96935 14.2254 8.12419 14.5778C7.17532 14.9005 5.92822 15.1368 4.77037 14.7686ZM5.55205 11.5855C4.50822 10.1458 4.63725 8.10178 4.77092 7.15311C5.32498 7.25151 6.23673 7.46893 7.10673 7.92346C6.95208 8.42061 6.85708 8.95088 6.85708 9.50392C6.85708 11.0674 7.61548 12.4496 8.33805 13.4119C7.38673 13.1055 6.25591 12.5563 5.55205 11.5855ZM9.99914 13.5516C9.33367 12.8641 8.03067 11.2899 8.03067 9.50392C8.03071 7.72506 9.33586 6.1455 10.0007 5.45628C10.6662 6.14374 11.9692 7.71799 11.9692 9.50392C11.9692 11.2827 10.6641 12.8623 9.99914 13.5516ZM13.1428 9.50388C13.1428 8.95084 13.0478 8.42057 12.8932 7.92342C13.7638 7.46854 14.6764 7.25108 15.2301 7.15284C15.3654 8.0999 15.4963 10.1395 14.4479 11.5855C13.744 12.5563 12.6131 13.1055 11.6618 13.4118C12.3844 12.4496 13.1428 11.0674 13.1428 9.50388ZM15.2295 14.7686C14.0773 15.135 12.8302 14.8988 11.8798 14.5766C13.034 14.2237 14.4735 13.5494 15.398 12.2743C15.713 11.8399 15.9429 11.3701 16.1085 10.8918C17.097 11.0382 17.9788 11.4124 18.4903 11.6657C18.037 12.5082 16.9316 14.2273 15.2295 14.7686Z" fill="#383838"/>
</g>
</g>
</g>
</svg>
