<svg width="20" height="20" viewBox="0 0 20 20" fill="none" xmlns="http://www.w3.org/2000/svg">
<g id="ic">
<g id="icon">
<path id="Path 1065" fill-rule="evenodd" clip-rule="evenodd" d="M17.7142 17.0718C17.004 17.0718 16.4283 16.4961 16.4283 15.786V4.21371C16.4283 3.50358 17.004 2.9279 17.7142 2.9279V2.9279C18.4243 2.9279 19 3.50358 19 4.21371V15.786C19 16.4961 18.4243 17.0718 17.7142 17.0718V17.0718Z" stroke="#383838" stroke-linecap="round"/>
<path id="Path 1065 Copy 5" fill-rule="evenodd" clip-rule="evenodd" d="M12.5704 17.0719C11.8602 17.0719 11.2845 16.4962 11.2845 15.786V6.7854C11.2845 6.07526 11.8602 5.49959 12.5704 5.49959V5.49959C13.2805 5.49959 13.8562 6.07526 13.8562 6.7854V15.786C13.8562 16.4962 13.2805 17.0719 12.5704 17.0719V17.0719Z" stroke="#383838" stroke-linecap="round"/>
<path id="Path 1065 Copy 6" fill-rule="evenodd" clip-rule="evenodd" d="M7.42826 17.0719C6.71813 17.0719 6.14246 16.4963 6.14246 15.7861V9.3571C6.14246 8.64697 6.71813 8.07129 7.42826 8.07129V8.07129C8.1384 8.07129 8.71407 8.64696 8.71407 9.3571V15.7861C8.71407 16.4963 8.1384 17.0719 7.42826 17.0719V17.0719Z" stroke="#383838" stroke-linecap="round"/>
<path id="Path 1065 Copy 7" fill-rule="evenodd" clip-rule="evenodd" d="M2.28446 17.0718C1.57433 17.0718 0.998657 16.4961 0.998657 15.786V11.9286C0.998657 11.2184 1.57433 10.6427 2.28446 10.6427V10.6427C2.9946 10.6427 3.57027 11.2184 3.57027 11.9286V15.786C3.57027 16.4961 2.9946 17.0718 2.28446 17.0718V17.0718Z" stroke="#383838" stroke-linecap="round"/>
</g>
</g>
</svg>
